<mxfile host="app.diagrams.net" agent="Mozilla/5.0 (Windows NT 10.0; Win64; x64) AppleWebKit/537.36 (KHTML, like Gecko) Chrome/133.0.0.0 Safari/537.36 Edg/133.0.0.0" version="26.0.3">
  <diagram name="Flowchart" id="RVbB43008ycLxZBUl13C">
    <mxGraphModel dx="527" dy="322" grid="1" gridSize="10" guides="1" tooltips="1" connect="1" arrows="1" fold="1" page="1" pageScale="1" pageWidth="850" pageHeight="1100" math="0" shadow="0">
      <root>
        <mxCell id="0" />
        <mxCell id="1" parent="0" />
        <mxCell id="KHMZIeZLSxYMLjo2uPH_-1" value="&lt;font style=&quot;font-size: 17px;&quot;&gt;Làm sạch dữ liệu&lt;/font&gt;" style="ellipse;whiteSpace=wrap;html=1;strokeColor=#000000;fillColor=#dae8fc;" parent="1" vertex="1">
          <mxGeometry x="270" y="40" width="100" height="100" as="geometry" />
        </mxCell>
        <mxCell id="cCsxZk9UVwnDf7rGVF-w-3" value="" style="edgeStyle=orthogonalEdgeStyle;rounded=0;orthogonalLoop=1;jettySize=auto;html=1;entryX=0;entryY=0.5;entryDx=0;entryDy=0;" edge="1" parent="1" source="KHMZIeZLSxYMLjo2uPH_-2" target="cCsxZk9UVwnDf7rGVF-w-1">
          <mxGeometry relative="1" as="geometry">
            <mxPoint x="640" y="90" as="targetPoint" />
          </mxGeometry>
        </mxCell>
        <mxCell id="KHMZIeZLSxYMLjo2uPH_-2" value="&lt;font style=&quot;font-size: 17px;&quot;&gt;Chuẩn hoá dữ liệu&lt;/font&gt;" style="ellipse;whiteSpace=wrap;html=1;strokeColor=#000000;fillColor=#d5e8d4;" parent="1" vertex="1">
          <mxGeometry x="455" y="40" width="105" height="100" as="geometry" />
        </mxCell>
        <mxCell id="KHMZIeZLSxYMLjo2uPH_-3" value="&lt;font style=&quot;font-size: 15px;&quot;&gt;Phân chia&amp;nbsp;&lt;/font&gt;&lt;div&gt;&lt;font style=&quot;font-size: 15px;&quot;&gt;dữ liệu thành tập train và test&lt;/font&gt;&lt;/div&gt;" style="ellipse;whiteSpace=wrap;html=1;strokeColor=#000000;fillColor=#fff2cc;" parent="1" vertex="1">
          <mxGeometry x="340" y="154.37" width="130" height="98.75" as="geometry" />
        </mxCell>
        <mxCell id="KHMZIeZLSxYMLjo2uPH_-8" style="edgeStyle=orthogonalEdgeStyle;rounded=0;orthogonalLoop=1;jettySize=auto;html=1;" parent="1" source="KHMZIeZLSxYMLjo2uPH_-1" target="KHMZIeZLSxYMLjo2uPH_-2" edge="1">
          <mxGeometry relative="1" as="geometry" />
        </mxCell>
        <mxCell id="s8NUhfyb4UhYwlAWuFb_-3" value="" style="edgeStyle=orthogonalEdgeStyle;rounded=0;orthogonalLoop=1;jettySize=auto;html=1;" parent="1" source="KHMZIeZLSxYMLjo2uPH_-14" target="KHMZIeZLSxYMLjo2uPH_-3" edge="1">
          <mxGeometry relative="1" as="geometry" />
        </mxCell>
        <mxCell id="KHMZIeZLSxYMLjo2uPH_-14" value="&lt;font style=&quot;font-size: 15px;&quot;&gt;Trích xuất và Phân tích đặc trưng&lt;/font&gt;" style="ellipse;whiteSpace=wrap;html=1;strokeColor=#000000;fillColor=#fff2cc;" parent="1" vertex="1">
          <mxGeometry x="550" y="149.99" width="112.5" height="107.5" as="geometry" />
        </mxCell>
        <mxCell id="cCsxZk9UVwnDf7rGVF-w-7" style="edgeStyle=orthogonalEdgeStyle;rounded=0;orthogonalLoop=1;jettySize=auto;html=1;exitX=1;exitY=0.5;exitDx=0;exitDy=0;entryX=1;entryY=0.5;entryDx=0;entryDy=0;" edge="1" parent="1" source="cCsxZk9UVwnDf7rGVF-w-1" target="KHMZIeZLSxYMLjo2uPH_-14">
          <mxGeometry relative="1" as="geometry">
            <Array as="points">
              <mxPoint x="750" y="90" />
              <mxPoint x="750" y="204" />
            </Array>
          </mxGeometry>
        </mxCell>
        <mxCell id="cCsxZk9UVwnDf7rGVF-w-1" value="&lt;font style=&quot;font-size: 17px;&quot;&gt;Phân tích, khám phá dữ liệu&lt;/font&gt;" style="ellipse;whiteSpace=wrap;html=1;strokeColor=#000000;fillColor=#d5e8d4;" vertex="1" parent="1">
          <mxGeometry x="632.5" y="40" width="105" height="100" as="geometry" />
        </mxCell>
      </root>
    </mxGraphModel>
  </diagram>
</mxfile>
